<?xml version="1.0" standalone="no"?>
<!DOCTYPE svg PUBLIC "-//W3C//DTD SVG 20010904//EN"
 "http://www.w3.org/TR/2001/REC-SVG-20010904/DTD/svg10.dtd">
<svg version="1.0" xmlns="http://www.w3.org/2000/svg"
 width="164.000000pt" height="174.000000pt" viewBox="0 0 164.000000 174.000000"
 preserveAspectRatio="xMidYMid meet">

<g transform="translate(0.000000,174.000000) scale(0.100000,-0.100000)"
fill="#000000" stroke="none">
<path d="M0 870 l0 -870 85 0 84 0 -24 25 c-24 23 -25 29 -25 154 0 126 1 130
23 137 12 4 25 11 29 17 9 14 -20 110 -38 123 -11 9 -14 44 -14 163 l0 151
635 0 635 0 0 -350 c0 -290 -3 -356 -15 -380 -8 -15 -20 -30 -27 -33 -7 -3 56
-6 140 -6 l152 -1 0 870 0 870 -820 0 -820 0 0 -870z m315 200 c0 -55 -3 -65
-19 -68 -26 -5 -36 15 -36 74 0 57 5 66 35 62 18 -3 20 -10 20 -68z m158 57
c3 -8 2 -38 -1 -68 -6 -45 -10 -54 -27 -54 -17 0 -21 9 -27 54 -8 66 -3 81 27
81 13 0 25 -6 28 -13z m155 -36 c5 -67 -4 -93 -31 -89 -19 3 -22 10 -25 57 -4
68 2 83 30 79 19 -2 24 -10 26 -47z m150 -18 c-3 -60 -5 -68 -24 -71 -19 -3
-22 3 -27 60 -6 72 -4 78 29 78 24 0 25 -1 22 -67z m154 2 c-4 -65 -12 -81
-36 -72 -12 5 -16 22 -16 72 l0 66 28 -3 c27 -3 27 -4 24 -63z m153 -5 c0 -55
-3 -65 -19 -68 -26 -5 -36 15 -36 74 0 57 5 66 35 62 18 -3 20 -10 20 -68z
m158 57 c3 -8 2 -38 -1 -68 -6 -45 -10 -54 -27 -54 -17 0 -21 9 -27 55 -4 30
-5 61 -3 68 6 16 52 16 58 -1z m314 -33 c6 -16 -81 -114 -101 -114 -15 0 -56
42 -56 56 0 22 20 27 39 10 16 -15 20 -13 56 24 43 44 53 48 62 24z m-1384
-19 c-12 -9 -29 -26 -38 -38 -8 -12 -15 -16 -15 -9 0 17 45 62 62 62 7 0 3 -7
-9 -15z m-40 -651 c7 -7 -28 -80 -43 -89 -14 -9 -52 14 -47 28 2 7 11 11 20 9
10 -2 23 10 32 28 15 30 26 36 38 24z"/>
</g>
</svg>
